<svg xmlns="http://www.w3.org/2000/svg" viewBox="0 0 24 24" width="24" height="24" color="#ff5722ff" fill="none">
    <defs />
    <path fill="currentColor" d="M12,1.25 C17.937,1.25 22.75,6.063 22.75,12 C22.75,17.937 17.937,22.75 12,22.75 C10.519,22.75 9.106,22.45 7.821,21.907 C7.483,21.765 7.255,21.669 7.08,21.604 C6.902,21.539 6.837,21.53 6.82,21.529 C6.726,21.522 6.599,21.546 5.993,21.708 L2.194,22.725 C1.935,22.794 1.659,22.72 1.47,22.53 C1.28,22.341 1.206,22.065 1.276,21.806 L2.292,18.007 C2.454,17.401 2.478,17.274 2.471,17.18 C2.47,17.163 2.461,17.098 2.396,16.92 C2.331,16.745 2.235,16.517 2.093,16.179 C1.55,14.894 1.25,13.481 1.25,12 C1.25,6.063 6.063,1.25 12,1.25 Z M2.75,12 C2.75,13.277 3.008,14.491 3.475,15.596 L3.482,15.613 C3.615,15.929 3.726,16.19 3.804,16.404 C3.882,16.618 3.952,16.843 3.968,17.076 C3.994,17.454 3.888,17.847 3.767,18.297 L3.767,18.298 L3.741,18.395 L3.06,20.94 L5.605,20.259 L5.703,20.233 L5.703,20.233 L5.703,20.233 C6.153,20.112 6.546,20.006 6.924,20.032 C7.157,20.048 7.382,20.118 7.596,20.196 C7.81,20.274 8.071,20.385 8.387,20.518 L8.404,20.525 C9.509,20.992 10.723,21.25 12,21.25 C17.109,21.25 21.25,17.109 21.25,12 C21.25,6.891 17.109,2.75 12,2.75 C6.891,2.75 2.75,6.891 2.75,12 Z M8.973,6.25 C9.194,6.25 9.565,6.257 9.908,6.4 C10.318,6.571 10.655,6.922 10.742,7.474 L10.743,7.48 L10.743,7.48 C10.85,8.163 10.931,8.683 10.985,9.05 C11.011,9.234 11.032,9.387 11.046,9.506 C11.057,9.604 11.071,9.739 11.064,9.852 C11.035,10.342 10.837,10.731 10.63,11.033 C10.499,11.225 10.323,11.433 10.184,11.597 L10.184,11.597 C10.13,11.662 10.081,11.719 10.043,11.766 L9.494,12.448 C9.78,12.83 10.099,13.199 10.45,13.55 C10.801,13.901 11.17,14.22 11.552,14.506 L12.234,13.957 C12.281,13.919 12.339,13.87 12.403,13.816 C12.567,13.678 12.776,13.501 12.967,13.37 C13.269,13.163 13.658,12.965 14.148,12.936 C14.261,12.929 14.396,12.943 14.494,12.955 C14.613,12.968 14.766,12.989 14.95,13.016 C15.318,13.069 15.837,13.15 16.52,13.257 L16.521,13.257 L16.526,13.258 C17.078,13.345 17.43,13.683 17.6,14.092 C17.743,14.435 17.75,14.807 17.75,15.027 L17.75,15.12 L17.75,15.12 C17.751,15.599 17.752,16.042 17.553,16.477 C17.409,16.793 17.163,17.062 16.918,17.258 C16.673,17.454 16.357,17.634 16.016,17.705 C15.55,17.803 15.195,17.722 14.816,17.636 L14.816,17.636 L14.763,17.624 C12.839,17.19 10.952,16.174 9.389,14.611 C7.826,13.048 6.811,11.161 6.376,9.237 L6.364,9.185 L6.364,9.185 C6.278,8.805 6.197,8.45 6.295,7.984 C6.366,7.644 6.546,7.327 6.742,7.082 C6.938,6.837 7.207,6.592 7.523,6.447 C7.959,6.249 8.401,6.249 8.881,6.25 Z M8.875,10.825 C8.963,10.716 9.038,10.627 9.105,10.549 C9.215,10.419 9.303,10.316 9.393,10.185 C9.508,10.017 9.555,9.894 9.566,9.781 L9.565,9.776 C9.564,9.763 9.562,9.731 9.555,9.675 C9.544,9.58 9.526,9.445 9.5,9.266 C9.45,8.919 9.373,8.427 9.27,7.769 C9.255,7.766 9.238,7.763 9.218,7.761 C9.151,7.753 9.072,7.75 8.973,7.75 C8.349,7.75 8.25,7.765 8.147,7.812 C8.105,7.831 8.011,7.897 7.914,8.019 C7.817,8.141 7.773,8.246 7.763,8.291 C7.738,8.413 7.74,8.467 7.839,8.907 C8.007,9.649 8.277,10.39 8.649,11.106 Z M15.094,16.161 C15.533,16.26 15.587,16.262 15.709,16.237 C15.754,16.228 15.86,16.184 15.981,16.086 C16.103,15.989 16.17,15.895 16.188,15.854 C16.236,15.75 16.25,15.652 16.25,15.027 C16.25,14.929 16.247,14.849 16.239,14.782 C16.237,14.762 16.234,14.745 16.232,14.731 C15.573,14.627 15.082,14.55 14.734,14.5 C14.555,14.474 14.421,14.456 14.325,14.445 C14.269,14.439 14.238,14.436 14.224,14.435 C14.222,14.435 14.22,14.435 14.219,14.435 C14.106,14.445 13.983,14.492 13.815,14.607 C13.685,14.697 13.581,14.785 13.452,14.895 C13.373,14.962 13.285,15.037 13.175,15.125 L12.895,15.351 C13.61,15.723 14.351,15.993 15.094,16.161 Z" />
</svg>